<?xml version="1.0" standalone="no"?>
<!DOCTYPE svg PUBLIC "-//W3C//DTD SVG 20010904//EN"
 "http://www.w3.org/TR/2001/REC-SVG-20010904/DTD/svg10.dtd">
<svg version="1.0" xmlns="http://www.w3.org/2000/svg"
 width="11811.000000pt" height="11811.000000pt" viewBox="0 0 11811.000000 11811.000000"
 preserveAspectRatio="xMidYMid meet">

<g transform="translate(0.000000,11811.000000) scale(0.100000,-0.100000)"
fill="#000000" stroke="none">
<path d="M58015 118099 c-6039 -106 -11967 -1116 -17645 -3009 -6177 -2058
-11979 -5136 -17170 -9109 -3582 -2741 -6846 -5888 -9717 -9368 -5153 -6245
-8960 -13462 -11187 -21203 -946 -3292 -1605 -6675 -1965 -10090 -246 -2333
-358 -4777 -323 -7052 15 -921 30 -1428 67 -2178 291 -5879 1446 -11637 3438
-17140 2043 -5644 4950 -10958 8616 -15750 2682 -3506 5770 -6723 9166 -9550
5661 -4712 12119 -8311 19075 -10630 7108 -2370 14638 -3359 22200 -2915 9113
536 17891 3147 25805 7678 5833 3339 11110 7705 15506 12827 3166 3690 5861
7742 8022 12066 4452 8905 6555 18734 6157 28779 -187 4725 -944 9425 -2246
13955 -3015 10483 -8915 19953 -17034 27340 -5089 4631 -10952 8342 -17290
10947 -5735 2357 -11808 3789 -18015 4248 -1804 133 -3662 186 -5460 154z
m2615 -3248 c963 -32 1708 -69 2500 -126 7802 -562 15365 -2751 22245 -6437
9261 -4962 16969 -12466 22182 -21593 2831 -4956 4880 -10313 6072 -15875 631
-2943 1019 -5899 1171 -8920 55 -1099 74 -2024 67 -3205 -6 -890 -12 -1188
-42 -1930 -231 -5747 -1340 -11393 -3295 -16775 -3313 -9119 -8993 -17260
-16440 -23561 -4230 -3579 -8981 -6519 -14043 -8690 -6239 -2676 -12881 -4178
-19697 -4454 -846 -34 -1178 -40 -2295 -40 -1447 0 -2243 24 -3555 106 -8040
500 -15872 2743 -22960 6577 -8016 4335 -14884 10597 -19947 18187 -2149 3222
-3943 6628 -5375 10205 -2351 5871 -3674 12076 -3933 18440 -34 845 -40 1177
-40 2295 0 1266 15 1894 70 2950 440 8417 2751 16543 6798 23905 3970 7222
9521 13509 16212 18361 5247 3806 11104 6662 17310 8442 4262 1223 8657 1930
13125 2112 320 13 882 29 1315 39 304 7 2258 -3 2555 -13z"/>
<path d="M57150 111538 c0 -51 -43 -1636 -94 -3523 -52 -1886 -94 -3430 -93
-3431 3 -2 1551 -44 1623 -44 l61 0 2 108 c1 59 18 685 38 1392 50 1727 51
2666 7 3363 l-7 97 25 0 c23 0 110 -175 1238 -2507 667 -1380 1216 -2512 1220
-2516 4 -5 142 -13 306 -18 885 -26 2186 -60 2189 -57 6 6 195 7031 189 7037
-7 7 -1675 53 -1681 47 -3 -3 -25 -715 -49 -1583 -47 -1686 -55 -2366 -33
-2981 6 -178 8 -326 5 -329 -3 -3 -11 -3 -18 0 -7 2 -557 1118 -1222 2478
-665 1361 -1211 2477 -1215 2481 -6 7 -464 21 -1666 53 -313 8 -627 17 -697
20 l-128 6 0 -93z"/>
<path d="M53575 111263 c-500 -63 -911 -116 -911 -116 -1 -2 874 -6992 875
-6992 10 -1 1886 237 1889 239 2 2 -193 1573 -432 3490 -240 1917 -436 3488
-436 3491 0 11 -107 -1 -985 -112z"/>
<path d="M66437 111078 c-15 -64 -1249 -6910 -1246 -6912 5 -4 1833 -334 1836
-332 1 1 106 578 233 1281 127 704 234 1289 238 1301 7 20 27 17 1042 -167
569 -103 1036 -186 1037 -186 3 3 272 1501 270 1502 -1 1 -467 85 -1035 187
-569 103 -1035 188 -1037 190 -5 5 232 1308 239 1315 3 4 511 -84 1127 -196
617 -111 1122 -201 1124 -199 1 2 63 338 137 748 131 728 133 745 113 752 -11
4 -920 169 -2020 368 -1100 198 -2012 363 -2026 366 -22 4 -28 1 -32 -18z"/>
<path d="M74130 109254 c-614 -54 -1092 -238 -1540 -592 -131 -103 -397 -373
-504 -512 -318 -411 -559 -881 -761 -1485 -129 -384 -208 -717 -257 -1075 -19
-142 -22 -210 -23 -490 0 -216 4 -357 13 -420 76 -549 266 -1003 588 -1410 89
-111 324 -346 444 -442 427 -340 996 -614 1646 -792 717 -197 1387 -205 1950
-25 935 299 1625 1068 2078 2316 175 482 288 959 332 1395 21 208 15 657 -11
818 -80 505 -237 892 -510 1255 -357 474 -885 847 -1585 1120 -396 155 -818
265 -1205 315 -153 20 -539 34 -655 24z m892 -1664 c295 -60 588 -205 762
-377 184 -182 290 -392 338 -668 18 -105 20 -148 15 -340 -8 -340 -65 -632
-212 -1070 -303 -909 -696 -1413 -1210 -1552 -92 -25 -115 -27 -290 -27 -215
0 -294 13 -505 83 -529 177 -826 525 -896 1050 -63 481 101 1223 415 1876 307
636 687 977 1164 1045 94 13 302 3 419 -20z"/>
<path d="M40705 108693 c-286 -113 -521 -207 -523 -208 -6 -5 727 -1862 785
-1990 57 -127 171 -349 271 -527 l59 -107 -27 -11 c-24 -10 -34 -7 -86 26 -31
20 -107 61 -168 90 -490 235 -1018 231 -1604 -14 -272 -114 -481 -251 -672
-442 -151 -151 -237 -269 -330 -455 -154 -309 -220 -608 -220 -998 0 -355 59
-703 186 -1098 295 -918 743 -1603 1284 -1966 500 -334 1036 -413 1616 -237
582 176 1008 506 1234 958 65 129 129 300 145 389 5 27 15 42 35 52 l28 15
217 -285 c119 -157 220 -286 223 -288 4 -2 187 67 407 154 220 87 404 160 409
161 5 2 -205 548 -467 1213 -261 666 -870 2214 -1352 3440 -483 1227 -886
2254 -897 2283 -12 28 -24 52 -27 51 -3 -1 -240 -93 -526 -206z m200 -3388
c248 -63 462 -219 657 -479 290 -388 622 -1196 693 -1687 21 -151 20 -390 -4
-504 -68 -328 -283 -582 -646 -763 -486 -243 -859 -240 -1235 11 -94 62 -305
275 -384 385 -284 400 -531 1014 -613 1524 -24 148 -23 463 0 582 89 445 330
716 772 869 285 98 536 119 760 62z"/>
<path d="M46610 108333 c-87 -7 -297 -44 -416 -73 -1038 -255 -1671 -915
-1826 -1905 -18 -117 -22 -183 -22 -405 -1 -350 27 -571 120 -941 272 -1087
843 -1787 1682 -2064 239 -79 452 -110 747 -109 312 1 566 39 905 134 673 191
1174 443 1588 801 l41 35 -119 425 c-66 233 -123 431 -127 440 -7 14 -30 -1
-128 -78 -427 -335 -812 -541 -1305 -701 -301 -97 -484 -127 -730 -119 -230 7
-380 46 -568 147 -315 170 -563 487 -723 925 -42 116 -46 131 -31 136 10 4
778 221 1707 484 930 262 1691 478 1693 479 4 4 -195 696 -231 801 -108 315
-276 628 -458 852 -336 412 -811 673 -1334 733 -84 9 -363 11 -465 3z m330
-903 c117 -28 287 -114 387 -195 188 -151 336 -383 448 -705 l34 -99 -37 -11
c-389 -115 -2289 -646 -2294 -641 -3 3 -14 67 -23 141 -23 179 -16 484 13 610
86 366 277 616 596 777 113 57 271 109 406 134 138 25 345 20 470 -11z"/>
<path d="M80523 105822 c-566 -1112 -779 -1529 -1922 -3771 -413 -811 -750
-1475 -749 -1476 3 -3 750 -385 1306 -668 l382 -194 44 81 c24 44 247 482 496
971 249 490 492 967 541 1061 l89 172 213 -108 212 -108 8 -54 c4 -29 32 -505
63 -1058 88 -1594 103 -1852 109 -1859 7 -6 1909 -979 1912 -977 1 1 -164
1405 -378 3219 -29 240 -49 440 -46 443 3 3 59 10 124 15 499 39 929 195 1248
452 101 82 263 249 338 349 204 273 370 647 431 967 172 904 -367 1715 -1591
2395 -92 51 -559 292 -1038 536 -478 243 -956 487 -1061 541 -105 55 -195 99
-200 99 -5 0 -244 -463 -531 -1028z m2043 -1364 c269 -160 427 -337 479 -539
24 -92 16 -249 -18 -346 -35 -100 -101 -224 -167 -313 -182 -245 -426 -349
-716 -307 -160 23 -278 66 -546 199 -131 64 -238 119 -238 122 0 2 87 174 193
382 107 209 271 531 366 716 l172 338 197 -102 c108 -55 234 -123 278 -150z"/>
<path d="M31575 104254 c-253 -162 -466 -299 -473 -303 -10 -6 119 -215 503
-817 285 -445 551 -858 593 -919 91 -134 235 -320 384 -497 110 -131 110 -131
88 -148 -20 -15 -27 -15 -117 17 -231 81 -407 108 -648 100 -277 -9 -511 -70
-782 -203 -141 -70 -357 -206 -463 -294 -386 -315 -610 -690 -691 -1155 -27
-156 -33 -478 -11 -635 71 -501 272 -1003 620 -1548 534 -834 1153 -1336 1827
-1478 164 -35 439 -44 603 -20 421 62 861 286 1204 614 312 299 509 711 534
1123 7 104 19 139 50 139 8 0 133 -106 278 -235 146 -129 267 -235 271 -235 3
0 172 106 375 236 236 151 367 240 363 248 -9 14 -1995 3120 -3523 5510 -278
434 -510 791 -515 792 -6 2 -217 -130 -470 -292z m992 -3309 c246 -52 457
-186 714 -452 338 -352 749 -1008 883 -1413 69 -208 81 -278 81 -475 0 -190
-14 -258 -80 -401 -119 -259 -403 -523 -730 -681 -439 -210 -876 -122 -1310
264 -262 233 -556 633 -759 1033 -295 578 -351 1066 -166 1445 106 220 279
385 551 529 297 156 562 206 816 151z"/>
<path d="M87515 102263 c-342 -439 -1315 -1690 -2164 -2781 -849 -1091 -1542
-1984 -1540 -1986 2 -1 300 -233 662 -514 362 -282 661 -512 665 -511 9 0
1903 2439 2087 2686 185 249 475 666 727 1043 116 173 214 319 218 323 14 16
42 -5 36 -27 -3 -11 -447 -1112 -986 -2446 -540 -1334 -982 -2428 -983 -2432
-1 -3 319 -256 711 -562 l714 -555 71 52 c40 30 959 707 2042 1507 1084 799
2004 1479 2046 1511 67 51 79 56 94 45 23 -17 46 14 -280 -366 -415 -484 -587
-687 -766 -910 -231 -286 -2099 -2688 -2098 -2697 1 -14 1373 -1073 1380
-1066 3 5 977 1256 2164 2781 1186 1526 2153 2777 2149 2782 -5 4 -456 355
-1002 779 l-993 772 -747 -543 c-411 -299 -1358 -989 -2106 -1533 -1121 -815
-1361 -987 -1375 -978 -9 6 -15 15 -14 20 1 8 92 239 843 2143 723 1834 1060
2689 1062 2698 2 7 -1983 1562 -1994 1562 -2 0 -282 -359 -623 -797z"/>
<path d="M58400 102664 c-351 -8 -901 -26 -1205 -39 -7267 -329 -14270 -2445
-20484 -6189 -3992 -2407 -7590 -5450 -10630 -8995 -3252 -3790 -5826 -8100
-7613 -12746 -2104 -5470 -3081 -11376 -2858 -17275 255 -6764 2034 -13269
5242 -19170 2327 -4278 5371 -8160 8978 -11444 2308 -2101 4808 -3935 7500
-5498 1371 -797 2860 -1554 4330 -2200 4926 -2167 10240 -3399 15650 -3628
1131 -48 2458 -51 3530 -10 3747 146 7318 734 10850 1786 8440 2516 15967
7587 21521 14499 2357 2932 4324 6156 5849 9580 2777 6240 4039 13047 3694
19930 -258 5156 -1412 10172 -3426 14895 -2808 6583 -7228 12408 -12833 16911
-2780 2234 -5818 4117 -9045 5606 -4906 2264 -10184 3588 -15595 3913 -378 22
-875 45 -1310 60 -291 11 -1851 20 -2145 14z m14645 -8554 c1329 -73 2562
-516 3370 -1211 222 -191 455 -459 582 -669 60 -99 269 -507 323 -630 50 -115
125 -330 155 -450 21 -84 25 -121 25 -252 -1 -1026 -383 -2512 -860 -3343
-202 -353 -459 -692 -969 -1280 -436 -503 -555 -681 -635 -951 -110 -372 -172
-732 -183 -1059 -21 -672 191 -1185 641 -1549 237 -192 509 -330 906 -461 307
-101 529 -151 1494 -340 921 -181 1333 -341 1619 -629 463 -468 686 -1056 639
-1686 -33 -442 -151 -838 -393 -1320 -303 -604 -710 -1155 -1284 -1739 -328
-334 -607 -580 -950 -839 -504 -380 -932 -616 -1590 -877 -376 -149 -616 -232
-1735 -600 -587 -192 -839 -282 -1145 -405 -1281 -514 -2520 -1287 -3343
-2084 -590 -572 -935 -1122 -1017 -1621 -19 -116 -19 -319 0 -427 72 -412 367
-756 861 -1002 395 -196 751 -264 1341 -253 382 6 521 20 1414 141 922 125
1394 136 1866 45 260 -50 565 -166 783 -297 420 -253 674 -612 757 -1072 21
-118 24 -406 4 -535 -67 -459 -270 -927 -607 -1401 -178 -252 -358 -461 -628
-729 -707 -703 -1650 -1326 -2776 -1834 -1029 -465 -1959 -749 -2588 -791
-219 -15 -288 -24 -591 -81 -785 -148 -1614 -344 -3176 -753 -1231 -321 -1793
-456 -2395 -575 l-205 -40 -250 -116 c-604 -281 -913 -446 -1251 -670 -340
-225 -866 -630 -1048 -805 -117 -113 -163 -171 -241 -305 -74 -127 -139 -223
-236 -352 -122 -163 -203 -337 -250 -542 -29 -123 -37 -412 -16 -536 41 -235
146 -436 311 -600 266 -264 693 -411 1399 -481 209 -21 925 -30 1283 -15 317
13 409 6 630 -48 601 -147 932 -539 995 -1177 66 -668 -237 -1597 -741 -2269
-453 -604 -1192 -1163 -2155 -1631 -642 -311 -1248 -544 -2420 -931 -1453
-478 -1628 -538 -2010 -685 -567 -218 -973 -416 -1315 -643 -561 -372 -871
-780 -980 -1290 -31 -142 -39 -453 -16 -620 80 -582 311 -950 755 -1204 213
-122 441 -201 959 -330 200 -50 414 -108 475 -127 409 -132 566 -304 567 -619
0 -344 -149 -650 -449 -920 -198 -178 -388 -313 -951 -670 -972 -618 -1398
-942 -1910 -1455 -581 -581 -1036 -1210 -1448 -2000 -103 -197 -206 -425 -417
-920 -313 -733 -488 -1043 -734 -1302 -218 -230 -487 -378 -795 -437 l-99 -20
-101 62 c-78 48 -131 92 -231 191 -160 158 -217 207 -342 289 -203 133 -321
187 -541 246 -79 22 -145 41 -147 43 -10 9 110 989 236 1938 376 2829 881
6177 1164 7715 152 829 217 1082 351 1381 157 346 328 600 825 1219 278 346
407 522 490 666 l50 86 131 48 c180 66 417 188 768 396 473 281 668 383 933
489 452 180 1129 364 1782 484 542 99 957 154 2035 271 702 76 862 94 1172
136 953 126 1659 298 2236 545 196 84 246 109 495 241 l178 95 -90 56 c-87 54
-89 56 -84 88 11 67 -6 122 -50 169 -58 59 -104 71 -222 57 -181 -23 -599
-115 -1455 -322 -1054 -255 -948 -237 -2655 -445 -385 -47 -817 -101 -960
-120 -1961 -266 -3254 -710 -4135 -1419 -146 -117 -282 -240 -473 -424 -461
-446 -671 -644 -675 -634 -2 6 18 156 43 333 40 281 53 345 96 487 370 1228
860 3162 1080 4267 l52 260 579 1600 579 1600 76 120 c247 388 371 540 826
1018 217 229 288 310 476 549 55 70 122 143 148 162 71 52 198 96 405 141 l77
16 47 77 c189 306 493 614 931 945 257 194 437 309 648 414 249 125 481 253
946 524 703 410 1011 579 1341 738 1083 524 2497 982 4334 1406 636 147 1094
243 2404 505 520 104 1042 209 1160 235 877 187 1372 333 1635 483 55 31 489
372 482 379 -10 9 -579 34 -677 29 -897 -46 -3118 -483 -5625 -1107 -1276
-318 -1792 -475 -2575 -784 -1061 -418 -2085 -936 -3525 -1782 -479 -281 -577
-338 -770 -443 -280 -153 -301 -169 -498 -374 -113 -117 -245 -241 -360 -338
-100 -83 -245 -215 -322 -292 -138 -138 -210 -224 -582 -686 -215 -269 -286
-339 -367 -364 -31 -10 -60 -16 -62 -13 -3 3 98 284 225 624 217 582 235 627
311 757 94 161 179 328 300 591 48 105 138 298 200 430 218 467 400 877 1055
2385 792 1823 876 2006 1275 2780 1152 2239 2318 4305 2997 5310 180 266 372
520 397 525 12 2 104 6 206 10 348 11 875 53 1270 100 1659 201 3090 620 4740
1390 645 301 1237 609 2650 1378 967 526 1409 760 1870 991 577 288 864 419
1970 901 435 190 1091 484 1103 494 11 11 -384 189 -473 214 -101 28 -378 30
-520 3 -605 -111 -1420 -463 -2950 -1274 -140 -74 -505 -269 -810 -432 -2106
-1128 -3037 -1592 -4115 -2055 -1726 -739 -3154 -1092 -4199 -1036 -213 12
-276 19 -276 32 0 12 294 448 414 614 535 737 1188 1553 2836 3545 1328 1605
1747 2115 2321 2825 1533 1896 2656 3390 3495 4650 242 362 341 518 981 1550
2270 3658 2808 4523 2826 4548 10 16 18 29 16 31 -2 1 -150 -82 -329 -186
-179 -104 -374 -213 -435 -243 -107 -53 -116 -60 -286 -227 -111 -109 -219
-227 -291 -318 -104 -131 -451 -654 -1608 -2425 -162 -248 -259 -404 -615
-995 -747 -1238 -1091 -1760 -1436 -2175 -208 -250 -251 -312 -424 -600 -59
-99 -159 -259 -223 -355 -120 -183 -331 -474 -339 -467 -2 3 3 45 11 93 8 49
27 197 41 329 30 281 55 410 129 675 93 335 172 641 271 1048 133 554 177 693
443 1412 176 477 246 677 306 883 92 311 144 557 170 792 15 135 48 626 43
631 -1 2 -98 -89 -215 -202 -218 -211 -303 -312 -404 -479 -291 -478 -526
-1136 -808 -2265 -104 -415 -122 -482 -267 -970 -270 -915 -373 -1315 -442
-1720 -29 -168 -61 -433 -61 -502 0 -21 -54 -153 -145 -356 -102 -228 -174
-407 -245 -608 -55 -157 -120 -334 -145 -393 -98 -233 -246 -435 -626 -856
-64 -71 -762 -890 -1549 -1820 -788 -929 -1825 -2152 -2304 -2718 -758 -895
-872 -1024 -879 -1005 -17 47 -79 306 -111 470 -81 403 -132 831 -168 1408
-17 273 -17 1438 0 1775 80 1571 249 3039 603 5240 49 308 105 657 124 775 74
471 82 712 31 863 -14 43 -31 109 -36 147 -8 58 -28 105 -112 275 -57 113
-105 205 -109 205 -3 0 -58 -107 -122 -237 -93 -191 -130 -280 -186 -448 -292
-880 -558 -2644 -746 -4945 -124 -1516 -167 -2666 -145 -3890 13 -734 27
-1065 72 -1710 12 -168 21 -406 22 -530 1 -243 -6 -292 -61 -429 -53 -135 -56
-138 -681 -1069 -368 -547 -664 -1015 -1055 -1667 -214 -355 -242 -408 -258
-475 -58 -249 -246 -569 -1032 -1762 -446 -677 -599 -914 -764 -1183 -393
-641 -642 -1128 -775 -1515 -24 -72 -79 -272 -90 -332 -2 -10 -64 -84 -138
-165 l-135 -147 -3 37 c-2 20 6 231 17 469 11 238 26 555 33 703 18 369 17
1594 0 1815 -130 1650 -586 2954 -2202 6295 -621 1285 -990 2113 -1123 2520
-112 343 -244 869 -432 1725 -329 1495 -383 1730 -455 1955 -47 145 -74 199
-203 403 l-116 183 -10 -38 c-121 -471 -141 -565 -161 -762 -13 -132 -13 -520
0 -676 104 -1231 647 -2910 1720 -5321 210 -471 418 -924 842 -1834 678 -1454
814 -1766 974 -2235 117 -343 202 -640 278 -976 411 -1804 355 -3846 -160
-5784 -296 -1115 -743 -2167 -1295 -3047 -276 -442 -447 -898 -656 -1753 -41
-170 -106 -436 -144 -590 -134 -551 -204 -769 -351 -1096 -117 -263 -103 -259
-139 -39 -90 561 -352 1197 -757 1835 -343 541 -793 1101 -1538 1915 -166 182
-255 268 -497 483 -98 87 -282 258 -410 379 -128 122 -308 285 -402 362 -1047
868 -1376 1157 -1863 1640 -817 810 -1332 1501 -1770 2376 -248 495 -433 967
-595 1520 -66 222 -109 414 -177 777 -28 150 -62 323 -76 385 -79 353 -182
603 -337 820 -60 84 -445 513 -454 505 -5 -6 15 -529 28 -717 89 -1300 568
-2821 1266 -4018 229 -394 826 -1245 1147 -1636 315 -384 497 -558 1041 -996
332 -267 528 -432 734 -616 80 -71 194 -173 253 -226 107 -96 245 -213 609
-518 187 -157 398 -364 984 -964 533 -546 626 -655 860 -1006 410 -616 668
-1179 815 -1775 101 -409 140 -746 140 -1205 0 -363 -18 -600 -100 -1349 -22
-194 -47 -448 -56 -565 l-17 -211 -55 -155 c-387 -1091 -916 -3021 -1501
-5470 -194 -815 -511 -2210 -511 -2251 0 -10 -3 -19 -8 -19 -9 0 -85 213 -178
500 -234 719 -632 1441 -1111 2016 -409 491 -888 910 -1678 1466 -121 85 -359
253 -530 373 -353 249 -662 478 -880 652 -487 391 -1282 1129 -1469 1363 -222
280 -381 588 -501 975 -25 83 -49 153 -53 156 -142 123 -200 156 -303 174 -95
17 -161 37 -408 124 -96 34 -176 60 -178 57 -6 -6 162 -466 223 -609 347 -818
921 -1555 1829 -2348 298 -261 612 -513 1285 -1034 962 -744 1302 -1029 1733
-1455 319 -314 520 -540 726 -815 550 -734 872 -1503 1000 -2390 42 -288 55
-492 54 -865 0 -497 -17 -680 -134 -1475 -239 -1627 -481 -3026 -641 -3698
l-30 -128 -137 228 c-308 514 -572 864 -891 1183 -267 268 -504 457 -881 701
-954 621 -1273 847 -1548 1099 -399 365 -535 479 -1045 875 l-88 69 5 -280 c4
-233 9 -295 26 -376 83 -381 305 -679 716 -960 142 -97 235 -154 560 -338
1020 -577 1758 -1166 2201 -1756 245 -326 407 -664 499 -1037 150 -608 121
-1295 -105 -2447 -70 -361 -302 -1453 -310 -1463 -4 -4 -96 -33 -206 -63 -825
-227 -1243 -478 -1812 -1088 -88 -94 -170 -183 -181 -198 l-21 -27 97 -72 c54
-40 149 -107 211 -149 l114 -77 58 -146 59 -147 -49 -87 c-177 -321 -481 -522
-890 -588 -125 -20 -377 -19 -522 1 -449 62 -915 283 -1307 620 -661 568
-1122 1434 -1286 2421 -44 260 -59 463 -59 788 0 526 39 852 223 1853 106 571
112 610 145 847 39 281 56 510 56 765 0 422 -46 715 -171 1099 -105 318 -199
548 -509 1236 -456 1013 -624 1462 -740 1974 -166 737 -127 1400 109 1878 243
491 678 866 1147 988 377 98 779 27 1106 -197 116 -79 234 -192 438 -418 245
-272 371 -384 553 -495 144 -87 356 -167 535 -201 81 -16 94 -16 102 -4 33 52
122 381 152 558 20 120 17 466 -5 577 -80 404 -260 725 -629 1125 -237 257
-498 485 -1213 1060 -870 700 -1216 1002 -1691 1475 -432 430 -750 793 -1058
1207 -1058 1421 -1497 2953 -1221 4257 58 274 137 501 261 751 215 434 512
775 897 1033 117 79 377 209 520 262 738 270 1626 177 2507 -265 382 -191 647
-367 1095 -725 414 -331 656 -495 960 -651 264 -135 448 -193 616 -194 194 0
314 83 370 260 33 102 37 315 10 500 -56 389 -175 747 -368 1104 -423 787
-1218 1815 -1691 2187 -56 45 -98 89 -133 140 -105 152 -183 246 -478 579
-314 354 -567 684 -846 1105 -285 430 -474 755 -703 1215 -684 1367 -1069
2796 -1143 4240 -14 276 -6 842 16 1100 91 1083 367 2068 780 2785 535 931
1303 1560 2097 1719 197 40 313 49 523 43 343 -10 634 -80 988 -238 356 -158
656 -377 1023 -743 327 -328 497 -532 1004 -1206 494 -657 620 -811 839 -1030
283 -282 503 -403 736 -405 l100 0 93 49 c201 108 410 295 534 480 237 355
340 787 325 1371 -12 478 -92 954 -263 1579 -172 629 -394 1247 -846 2351
-255 623 -401 1007 -538 1410 -452 1338 -697 2515 -761 3665 -15 267 -6 966
15 1190 107 1121 394 1992 907 2750 849 1253 2265 1879 3587 1584 387 -86 763
-262 1072 -503 493 -384 1035 -1174 1865 -2721 493 -919 629 -1128 913 -1401
216 -209 420 -324 682 -386 170 -40 468 -42 653 -6 69 14 222 321 308 619 117
407 181 873 284 2079 80 932 119 1321 180 1775 207 1540 559 2675 1124 3623
232 390 487 719 811 1051 919 939 1998 1566 3000 1745 424 75 895 73 1249 -5
565 -126 921 -454 1118 -1029 93 -275 143 -537 223 -1192 89 -719 152 -1041
265 -1344 74 -199 82 -212 135 -223 25 -4 119 -9 210 -9 243 -2 429 40 671
148 464 209 891 581 1774 1545 757 827 1055 1131 1435 1461 686 594 1295 948
1980 1152 596 178 1270 253 1935 217z m-16810 -27150 c-52 -104 -97 -190 -100
-190 -7 0 5 28 75 180 54 118 101 200 116 200 2 0 -39 -85 -91 -190z m10986
-7070 c613 -202 1073 -645 1252 -1205 131 -411 177 -925 192 -2125 7 -585 18
-732 71 -945 93 -375 315 -625 659 -742 l69 -23 79 47 c258 156 516 470 982
1193 87 135 232 360 323 500 717 1112 1276 1771 1911 2254 451 343 905 565
1446 706 1060 277 2010 189 2675 -249 296 -194 456 -404 516 -673 22 -98 22
-313 0 -436 -37 -205 -82 -348 -251 -797 -188 -498 -244 -698 -269 -960 l-6
-60 62 -42 c167 -112 335 -163 569 -170 386 -13 660 54 1646 406 985 351 1408
456 1975 492 681 43 1420 -168 2108 -604 803 -509 1415 -1255 1600 -1951 53
-198 63 -289 62 -528 l-1 -217 -50 -148 c-151 -453 -329 -800 -518 -1015 -181
-205 -300 -281 -898 -578 -264 -131 -543 -275 -620 -320 -478 -280 -962 -659
-1326 -1038 -697 -723 -832 -1388 -411 -2017 166 -248 381 -458 887 -865 546
-439 720 -608 846 -820 104 -176 164 -488 140 -734 -35 -359 -186 -652 -496
-961 -157 -158 -274 -252 -465 -378 -606 -397 -1477 -697 -2270 -781 -498 -53
-875 -20 -2010 174 -899 154 -1242 190 -1821 190 -1127 0 -2089 -213 -2665
-592 -143 -94 -327 -277 -397 -395 -162 -273 -168 -572 -16 -890 89 -187 264
-405 437 -545 256 -206 560 -355 1227 -598 634 -232 915 -363 1158 -542 272
-202 471 -465 553 -734 25 -81 28 -104 28 -254 1 -132 -3 -179 -18 -235 -135
-503 -665 -945 -1446 -1206 -367 -122 -745 -198 -1230 -246 -217 -22 -949 -25
-1185 -5 -804 67 -1338 174 -1717 343 -317 142 -1112 361 -2465 678 -899 212
-1210 290 -1618 411 l-200 59 -265 12 c-319 14 -784 7 -960 -15 -69 -9 -222
-32 -340 -51 -448 -74 -572 -109 -730 -205 -52 -32 -158 -89 -236 -128 -198
-99 -314 -195 -414 -342 -20 -30 -74 -122 -119 -204 l-82 -148 16 -48 c10 -30
17 -94 19 -171 4 -133 19 -197 76 -309 108 -212 354 -446 698 -663 176 -111
383 -224 666 -363 196 -96 276 -141 343 -193 146 -112 236 -220 298 -354 162
-351 10 -790 -425 -1228 -380 -381 -756 -589 -1290 -712 -563 -130 -1193 -138
-2080 -26 -295 37 -471 65 -1200 188 -322 55 -646 109 -720 120 -798 122
-1314 129 -1715 24 -516 -134 -838 -466 -973 -1003 -22 -91 -26 -126 -26 -260
0 -128 3 -169 21 -235 81 -295 220 -480 648 -861 201 -180 281 -262 335 -346
72 -111 77 -197 18 -320 -87 -178 -236 -301 -453 -372 -172 -56 -317 -76 -855
-121 -442 -37 -583 -52 -810 -86 -859 -130 -1622 -441 -2360 -963 -63 -44
-252 -191 -420 -326 -541 -434 -710 -543 -959 -617 -153 -45 -375 -43 -523 5
-48 16 -55 22 -90 82 -34 60 -46 92 -95 255 -21 72 -97 223 -161 320 -25 39
-85 110 -133 159 l-87 89 71 106 c183 274 878 1253 1443 2033 1210 1671 2248
3050 2649 3523 301 354 531 509 1155 775 262 112 418 186 523 246 l79 46 111
-13 c83 -9 185 -10 397 -3 491 16 812 11 980 -15 525 -80 1050 -226 1725 -478
110 -41 436 -168 725 -283 874 -347 1228 -467 1641 -559 350 -79 579 -103 930
-99 l257 3 -50 85 c-42 70 -48 87 -39 102 6 10 14 39 18 63 11 86 -44 172
-135 211 -88 37 -407 125 -977 270 -691 176 -712 183 -1565 509 -1083 414
-1441 535 -1935 655 -506 123 -853 166 -1283 157 -367 -7 -552 -37 -957 -154
-104 -30 -244 -70 -309 -89 -66 -19 -123 -33 -127 -32 -23 8 164 234 366 443
677 703 1434 1546 1856 2066 112 140 160 185 970 920 468 426 870 784 893 796
23 12 71 29 106 38 84 22 88 24 180 109 43 39 100 84 127 98 28 16 126 46 233
72 102 24 271 72 375 106 623 202 1383 380 1870 439 50 6 272 13 495 16 223 2
488 9 590 14 337 19 862 25 1085 12 654 -37 1372 -150 2235 -352 578 -135
1130 -287 2200 -606 1317 -392 1658 -475 1950 -477 113 -1 148 4 367 49 134
28 243 52 243 55 0 7 -445 274 -515 308 -205 101 -770 300 -1355 476 -1107
334 -2785 766 -3434 885 -809 148 -1771 212 -2766 182 -1648 -49 -1918 -93
-2737 -445 -184 -79 -333 -141 -331 -137 2 4 155 143 341 309 326 290 344 304
488 387 191 111 259 162 509 385 745 665 2170 1745 3515 2665 1324 905 2496
1638 3081 1926 l181 89 149 -71 c206 -99 590 -261 829 -352 925 -349 1827
-545 2855 -621 587 -44 1188 -53 2515 -37 1260 15 1610 6 2530 -64 406 -31
1195 -84 1202 -80 1 0 -61 83 -138 183 -159 207 -205 249 -354 322 -158 77
-370 131 -675 169 -433 55 -728 63 -2300 62 -1674 -2 -2199 9 -2905 60 -1132
80 -1971 248 -2624 524 -195 83 -453 221 -448 240 4 16 657 339 947 469 557
250 1009 442 2545 1079 1807 750 2771 1166 3645 1569 775 358 1482 712 2031
1015 205 113 4288 2496 4284 2501 -1 1 -177 -5 -391 -13 -214 -8 -423 -14
-464 -13 -62 1 -99 -6 -211 -40 -245 -73 -335 -114 -724 -329 -159 -88 -553
-306 -875 -483 -322 -178 -812 -459 -1090 -625 -889 -532 -1235 -722 -1565
-860 -180 -75 -229 -101 -433 -227 -129 -80 -398 -228 -415 -228 -4 0 16 35
45 77 76 111 197 233 324 328 137 103 169 139 298 335 192 290 357 470 792
860 650 584 770 719 1049 1174 80 131 144 240 143 242 -7 7 -499 -137 -569
-167 -338 -142 -790 -534 -1390 -1204 -114 -126 -325 -352 -471 -501 -526
-539 -714 -768 -888 -1081 l-59 -106 -213 -139 c-163 -107 -240 -165 -327
-247 -330 -308 -400 -352 -790 -497 -159 -60 -1009 -400 -3686 -1474 -489
-197 -891 -357 -893 -355 -5 4 79 285 128 429 202 591 580 1339 1095 2166 463
743 956 1448 1769 2530 512 682 572 774 602 924 8 39 21 87 28 106 10 24 17
110 22 264 6 195 5 228 -7 221 -62 -37 -343 -245 -422 -313 -380 -329 -1031
-1180 -1813 -2372 -921 -1403 -1522 -2479 -2081 -3725 -189 -422 -213 -465
-303 -555 -85 -85 -127 -111 -475 -295 -599 -318 -1027 -561 -1541 -876 -134
-82 -206 -133 -242 -171 -121 -128 -342 -263 -1162 -713 -1097 -602 -1492
-857 -1805 -1168 -94 -94 -152 -144 -177 -153 -21 -7 -38 -11 -38 -8 0 3 85
150 189 327 476 811 692 1233 856 1672 324 869 456 1859 535 4015 32 866 51
1235 85 1615 43 476 83 648 485 2100 107 384 184 696 201 811 10 67 9 120 -6
310 -9 126 -18 230 -20 232 -2 2 -21 -16 -43 -40 -316 -347 -353 -392 -445
-544 -112 -184 -203 -387 -296 -658 -60 -175 -136 -436 -167 -574 -9 -41 -19
-70 -24 -65 -4 4 -15 40 -24 78 -23 92 -82 215 -141 293 -53 71 -563 606 -743
781 -407 394 -626 501 -1177 570 -88 11 -202 23 -252 27 -51 4 -93 10 -93 15
0 4 22 70 49 146 269 759 631 1406 1058 1893 140 159 348 361 486 470 l108 85
257 62 c488 119 1887 438 1935 442 4 1 75 -21 158 -49z m-14732 -1296 c-285
-718 -876 -2422 -1155 -3333 -38 -122 -70 -218 -72 -213 -2 6 18 86 43 179
145 526 302 1215 328 1443 l14 115 352 785 c310 691 509 1115 519 1106 1 -2
-11 -39 -29 -82z m-2043 -6495 c-213 -841 -464 -1978 -640 -2894 -216 -1126
-286 -1554 -721 -4373 -538 -3492 -851 -5374 -1220 -7347 -784 -4189 -1548
-7024 -2292 -8508 -166 -331 -941 -1674 -1213 -2102 -451 -709 -778 -1086
-1119 -1287 -313 -184 -643 -254 -1441 -303 -552 -34 -501 -34 -624 -2 -61 15
-117 30 -124 32 -24 9 358 497 1179 1505 l386 475 1133 1194 c1208 1274 1186
1250 1367 1546 947 1546 1778 4406 2692 9256 213 1133 373 2034 791 4454 554
3212 749 4239 1050 5530 121 518 253 1003 674 2472 108 376 196 686 196 690 0
3 2 4 5 1 3 -3 -32 -156 -79 -339z m14809 259 c-8 -37 -42 -628 -80 -1383 -48
-959 -61 -1166 -91 -1440 -157 -1453 -895 -3002 -2030 -4261 -148 -165 -493
-506 -649 -643 -362 -317 -711 -574 -1060 -781 -262 -155 -278 -166 -694 -499
-464 -370 -653 -491 -841 -536 -18 -4 -90 -87 -245 -281 -194 -244 -277 -336
-289 -323 -2 2 14 50 35 107 91 238 160 515 196 787 21 163 25 672 5 840 -57
484 -194 1100 -327 1465 -66 182 -79 222 -151 470 -20 69 -43 130 -49 135 -7
6 -29 51 -48 100 -20 50 -96 236 -170 415 -260 628 -412 1047 -531 1465 -88
305 -84 272 -34 285 156 40 726 205 980 284 1678 523 3028 1126 4078 1821 472
313 788 565 1138 910 192 188 346 359 489 542 96 123 284 401 328 486 31 58
49 74 40 35z m-7640 -4315 c64 -298 135 -510 295 -882 177 -412 356 -871 339
-871 -5 0 -89 23 -186 51 -98 27 -407 109 -688 180 -683 174 -913 241 -1154
336 l-93 37 6 91 c17 222 60 396 134 539 36 72 64 109 132 176 49 49 115 102
155 126 171 99 400 174 725 238 102 19 205 40 230 45 89 18 86 20 105 -66z
m1332 -4615 c-8 -320 -36 -534 -102 -793 -98 -383 -250 -689 -634 -1279 -86
-132 -178 -275 -204 -316 -39 -62 -57 -81 -106 -109 -400 -228 -1444 -1326
-2962 -3116 -201 -237 -673 -803 -721 -865 -15 -19 -29 -32 -31 -30 -3 3 4 50
14 105 45 247 54 366 54 740 0 317 -3 380 -23 525 -44 324 -117 623 -223 907
-28 76 -53 148 -56 160 -4 16 14 54 57 125 225 368 479 671 765 911 330 277
670 501 1465 967 864 506 1147 685 1500 951 539 404 922 821 1150 1252 28 53
54 97 57 97 3 0 3 -105 0 -232z m-457 -2570 c-310 -298 -472 -449 -448 -418
15 19 58 76 95 125 57 77 94 111 252 237 102 81 188 147 191 147 3 0 -38 -41
-90 -91z m-4911 -2405 c76 -320 101 -515 108 -838 7 -348 -17 -573 -93 -880
-111 -445 -329 -910 -632 -1350 -231 -336 -1025 -1394 -1391 -1855 -281 -354
-365 -452 -372 -433 -3 10 -9 72 -13 138 -26 455 -128 881 -303 1271 -53 120
-78 165 -331 624 -72 129 -129 236 -128 237 1 2 29 -2 62 -7 96 -16 341 -13
451 6 496 84 958 404 1419 980 236 295 471 690 699 1172 79 169 271 591 443
979 21 46 40 83 44 83 3 0 20 -57 37 -127z m-4652 -1981 c100 -147 351 -432
487 -552 63 -56 89 -86 102 -120 45 -120 133 -274 319 -565 259 -405 466 -801
610 -1170 138 -351 199 -617 212 -915 22 -541 -172 -1024 -692 -1726 -210
-283 -677 -854 -698 -854 -7 0 -88 16 -181 35 -510 107 -934 107 -1353 1 -54
-14 -99 -24 -100 -22 -1 1 13 58 31 127 258 942 477 1967 811 3794 208 1138
274 1478 346 1775 53 219 59 240 67 240 4 0 21 -22 39 -48z m5223 -476 c0 -2
-8 -10 -17 -17 -16 -13 -17 -12 -4 4 13 16 21 21 21 13z m-37 -48 c-25 -32
-431 -576 -732 -980 -183 -247 -335 -448 -338 -448 -3 0 -1 6 4 13 6 6 120
161 253 342 337 457 809 1085 817 1085 3 0 1 -6 -4 -12z m-1073 -1442 c0 -2
-8 -10 -17 -17 -16 -13 -17 -12 -4 4 13 16 21 21 21 13z m-5614 -4654 c-19
-20 -20 -7 -4 39 l13 34 3 -29 c2 -17 -3 -35 -12 -44z m883 -1364 c-377 -426
-934 -1026 -944 -1016 -2 2 -6 23 -9 48 l-7 45 128 114 c70 62 299 286 508
496 209 211 382 384 384 384 1 1 -26 -31 -60 -71z m-7936 -3364 c3 -3 -21 -39
-53 -79 -32 -40 -81 -112 -109 -159 -55 -90 -191 -365 -191 -385 0 -6 -7 -11
-15 -11 -19 0 -21 -5 20 85 51 110 145 279 239 427 75 118 93 138 109 122z"/>
<path d="M27250 98224 c-14 -2 -59 -9 -100 -15 -206 -31 -470 -134 -715 -282
-244 -147 -457 -317 -706 -566 -340 -341 -634 -746 -823 -1135 -51 -105 -116
-251 -116 -261 0 -5 801 -377 803 -374 1 2 52 105 114 229 112 226 244 458
331 580 215 304 514 577 757 691 333 156 667 76 979 -234 76 -76 286 -317 286
-329 0 -4 -183 -175 -407 -381 -630 -579 -850 -815 -1069 -1147 -236 -359
-347 -659 -361 -975 -19 -421 176 -838 564 -1205 508 -481 1110 -578 1703
-274 416 212 881 668 1075 1053 118 236 174 505 178 863 1 101 6 189 11 196 4
7 15 11 23 8 9 -4 155 -95 326 -203 171 -108 316 -196 323 -196 6 0 146 116
312 258 257 222 299 261 289 275 -61 84 -2408 2802 -2491 2885 -287 286 -569
453 -876 520 -72 15 -355 29 -410 19z m1455 -2454 c253 -293 352 -449 420
-656 109 -332 49 -704 -164 -1021 -201 -297 -527 -550 -783 -604 -29 -7 -98
-9 -157 -7 -87 4 -120 10 -182 35 -233 91 -446 333 -531 603 -19 63 -23 96
-23 205 0 164 20 239 110 420 115 230 269 422 584 724 355 341 536 510 543
508 3 -1 86 -94 183 -207z"/>
<path d="M98236 95144 c-42 -39 -47 -46 -35 -61 8 -9 191 -222 407 -472 l393
-456 72 -23 c369 -120 1599 -425 2221 -552 l189 -38 38 30 c37 30 38 31 21 52
-9 12 -312 364 -673 782 l-657 760 -108 -9 c-144 -12 -1010 -1 -1449 18 -192
8 -354 14 -360 14 -5 0 -32 -20 -59 -45z"/>
<path d="M22765 94434 c-269 -283 -504 -528 -520 -544 l-31 -30 -424 405
c-233 223 -427 405 -431 405 -14 0 -474 -491 -473 -505 1 -8 122 -247 270
-532 148 -285 268 -522 267 -528 -2 -5 -55 -194 -118 -419 -64 -226 -114 -415
-113 -421 4 -15 351 -346 359 -342 3 1 115 117 249 257 133 140 246 256 249
258 4 1 495 -464 1091 -1034 597 -570 1130 -1073 1185 -1117 479 -386 941
-503 1391 -352 410 137 845 529 1176 1060 68 108 198 355 198 376 0 6 -588
571 -607 582 -7 5 -32 -31 -71 -100 -114 -204 -236 -375 -383 -535 -185 -202
-365 -292 -579 -291 -149 0 -288 56 -443 176 -32 25 -532 498 -1112 1052 -932
890 -1053 1009 -1042 1024 6 10 239 255 517 545 278 291 506 532 508 536 4 10
-595 584 -611 587 -7 1 -232 -230 -502 -513z"/>
<path d="M95850 94214 c-960 -405 -2498 -1052 -3419 -1439 -921 -388 -1676
-706 -1678 -709 -3 -2 302 -360 678 -794 l682 -791 86 43 c138 69 1125 544
1138 548 14 4 1505 -1721 1500 -1736 -3 -6 -176 -260 -386 -565 -327 -474
-380 -556 -369 -569 7 -9 313 -364 679 -788 l667 -773 244 407 c2887 4806
3588 5976 3586 5983 -5 14 -1651 1919 -1657 1918 -3 0 -791 -331 -1751 -735z
m1652 -1076 c-126 -155 -547 -744 -882 -1233 -385 -562 -825 -1202 -840 -1222
-16 -21 -25 -12 -504 544 -269 311 -484 569 -480 573 5 5 304 153 664 330 951
466 1605 804 2000 1033 52 30 96 54 98 52 2 -2 -23 -36 -56 -77z"/>
<path d="M17897 92214 c-186 -239 -340 -440 -343 -447 -3 -9 290 -243 798
-638 934 -727 5088 -3958 5104 -3970 6 -5 137 154 358 437 191 246 346 447
344 449 -4 3 -131 102 -3171 2467 -1511 1176 -2748 2138 -2750 2138 -1 -1
-154 -197 -340 -436z"/>
<path d="M100248 90601 c-344 -245 -629 -449 -633 -452 -3 -4 217 -320 490
-703 272 -384 495 -701 495 -704 0 -4 -400 -290 -888 -637 -2265 -1608 -3558
-2528 -3569 -2538 -8 -9 121 -198 536 -782 302 -423 551 -770 554 -770 3 0
997 704 2208 1565 1211 861 2217 1575 2234 1587 l33 22 497 -699 497 -700 71
50 c362 251 1192 850 1190 858 -2 8 -3066 4327 -3082 4343 -3 4 -288 -194
-633 -440z"/>
<path d="M17893 88733 c-20 -32 -157 -246 -305 -476 -147 -230 -268 -421 -268
-425 0 -4 472 -308 1048 -677 575 -368 1139 -731 1252 -807 580 -386 884 -725
981 -1096 29 -111 36 -301 15 -422 -72 -408 -377 -869 -677 -1020 -125 -64
-179 -75 -359 -75 -149 0 -174 3 -263 28 -126 35 -266 93 -389 162 -75 42
-2591 1648 -2862 1827 -32 21 -60 37 -61 36 -1 -2 -127 -199 -280 -438 -153
-239 -291 -454 -306 -477 l-29 -42 27 -19 c37 -25 2889 -1853 2973 -1905 286
-176 575 -296 840 -348 150 -30 418 -33 552 -6 195 39 405 132 578 254 118 84
369 333 472 468 300 396 469 771 524 1165 22 158 14 456 -15 585 -25 106 -66
235 -93 288 -17 35 -17 39 -2 62 9 14 18 25 20 25 2 0 149 -52 326 -116 178
-64 328 -117 335 -118 7 0 120 167 252 372 l240 373 -57 36 c-430 275 -4358
2794 -4389 2815 l-43 29 -37 -58z"/>
<path d="M104685 85165 c-50 -29 -4328 -2500 -5317 -3071 -401 -230 -727 -424
-725 -431 4 -20 941 -1642 949 -1643 4 0 947 543 2095 1206 1148 663 2519
1454 3045 1758 526 303 957 554 958 558 0 12 -945 1641 -955 1644 -5 2 -28 -8
-50 -21z"/>
<path d="M14724 83263 c-329 -271 -645 -673 -869 -1106 -115 -222 -166 -341
-235 -547 -208 -618 -183 -1180 75 -1705 197 -403 522 -752 985 -1060 197
-131 309 -195 543 -311 382 -188 724 -304 1082 -366 176 -30 605 -33 755 -5
528 99 930 342 1280 772 263 323 550 885 670 1310 61 217 98 516 85 677 l-7
76 -433 221 c-239 122 -436 221 -438 221 -2 0 -7 -93 -10 -207 -6 -229 -28
-403 -76 -598 -74 -301 -199 -600 -342 -815 -80 -122 -256 -298 -361 -364
-433 -268 -994 -223 -1718 139 -717 358 -1113 769 -1200 1245 -16 90 -14 288
4 392 47 262 189 550 403 816 105 131 303 340 426 452 58 52 105 100 104 107
-2 12 -638 712 -648 713 -3 0 -36 -26 -75 -57z"/>
<path d="M104880 80520 c-475 -37 -935 -148 -1426 -345 -524 -210 -939 -444
-1310 -739 -147 -117 -434 -410 -540 -551 -510 -681 -665 -1463 -469 -2370
147 -685 529 -1489 968 -2038 122 -153 328 -377 346 -377 14 0 1423 551 1468
574 21 11 18 16 -89 131 -225 244 -481 552 -599 720 -206 294 -373 655 -445
961 -26 110 -28 134 -28 324 0 190 2 212 27 303 118 438 441 778 1022 1078
469 242 1007 404 1418 427 413 24 766 -61 1026 -245 88 -63 214 -191 278 -284
144 -210 279 -591 327 -929 32 -223 44 -828 20 -993 l-6 -39 801 3 c444 1 804
6 807 11 3 5 8 113 11 241 11 464 -38 907 -151 1350 -214 839 -608 1546 -1121
2010 -483 436 -1039 687 -1685 762 -168 19 -498 27 -650 15z"/>
<path d="M12705 77483 c-318 -26 -581 -139 -821 -351 -382 -336 -694 -981
-828 -1713 -79 -430 -96 -923 -44 -1309 6 -47 12 -87 14 -89 4 -5 868 81 875
88 3 3 -1 67 -8 141 -9 85 -15 262 -16 480 -2 391 6 468 73 736 83 325 183
528 335 679 84 83 170 135 280 172 74 25 92 27 255 28 135 0 193 -4 255 -18
121 -28 475 -147 475 -159 0 -7 -68 -237 -151 -512 -270 -899 -326 -1165 -336
-1622 -9 -410 37 -658 173 -924 210 -411 606 -673 1198 -792 150 -31 474 -33
606 -5 610 131 1019 607 1224 1425 62 249 70 315 71 562 0 200 -3 237 -23 328
-47 210 -144 440 -280 667 -40 66 -71 126 -70 135 4 17 137 19 558 10 l224 -5
128 379 c71 208 126 381 123 384 -7 8 -3397 1149 -3525 1187 -267 79 -553 116
-765 98z m1787 -1632 c363 -123 475 -176 644 -307 234 -181 383 -449 425 -762
16 -117 6 -340 -21 -467 -12 -55 -39 -153 -60 -218 -123 -368 -304 -566 -570
-623 -252 -54 -618 76 -815 288 -75 81 -151 225 -180 338 -56 227 -38 567 51
925 21 85 257 915 260 915 1 0 120 -40 266 -89z"/>
<path d="M102541 73403 c5 -21 110 -476 234 -1012 123 -535 227 -976 230 -979
3 -4 310 -17 683 -30 372 -13 679 -26 681 -28 2 -2 118 -497 257 -1100 139
-603 256 -1104 259 -1114 4 -13 -110 -77 -596 -331 -331 -173 -603 -319 -606
-325 -3 -9 454 -2013 461 -2021 1 -1 152 90 336 201 547 332 1995 1209 2730
1654 377 228 809 490 960 581 151 92 741 449 1311 794 l1035 628 -286 1237
-285 1237 -255 22 c-3159 277 -7133 623 -7144 623 -11 0 -12 -7 -5 -37z m4414
-2110 c566 -17 2054 -24 2108 -10 59 16 22 -10 -76 -53 -130 -56 -918 -450
-1227 -613 -841 -443 -1443 -757 -1445 -755 -3 4 -335 1444 -335 1454 0 4 96
4 213 0 116 -3 460 -14 762 -23z"/>
<path d="M8462 72707 c-5 -23 -206 -894 -447 -1934 -241 -1041 -437 -1894
-434 -1896 8 -7 6859 -1590 6863 -1586 7 8 257 1102 252 1106 -2 3 -285 70
-628 149 -343 80 -954 221 -1358 315 -894 207 -820 188 -820 206 0 8 133 589
295 1290 163 702 294 1278 291 1280 -5 6 -940 222 -944 219 -1 -2 -135 -576
-297 -1277 -163 -701 -298 -1281 -301 -1290 -4 -15 -14 -14 -102 6 -53 13
-421 98 -817 190 -1162 269 -1215 281 -1221 288 -4 4 136 623 311 1377 174
754 315 1374 311 1377 -3 3 -207 52 -453 109 -246 57 -458 106 -470 109 -18 4
-23 -1 -31 -38z"/>
<path d="M11845 48135 c-462 -134 -1263 -365 -1780 -513 -517 -149 -994 -289
-1060 -312 -144 -50 -364 -154 -494 -235 -242 -150 -456 -363 -599 -597 -306
-500 -338 -1128 -95 -1873 155 -475 392 -844 706 -1099 123 -98 213 -156 360
-226 366 -177 760 -220 1222 -135 75 14 302 73 504 131 201 58 938 270 1636
470 1491 429 1635 471 1641 477 4 4 -160 581 -173 608 -7 13 -183 -35 -1198
-328 -2730 -786 -2542 -735 -2768 -752 -779 -59 -1319 456 -1479 1409 -27 162
-29 405 -4 535 83 441 362 762 827 953 85 34 402 130 999 302 2401 691 2772
798 2777 804 7 6 -169 626 -177 625 -3 -1 -383 -110 -845 -244z"/>
<path d="M106982 43845 c-1657 -73 -3015 -135 -3017 -137 -9 -8 -179 -517
-175 -521 109 -97 4644 -3947 4646 -3944 2 2 51 142 109 311 l105 307 -32 27
c-17 15 -349 294 -737 620 -388 327 -705 599 -703 605 6 28 725 2125 731 2134
3 6 378 25 886 47 484 20 918 40 964 44 l83 7 109 318 108 317 -32 -1 c-18 -1
-1388 -61 -3045 -134z m8 -1457 c-161 -469 -296 -857 -300 -861 -4 -5 -340
267 -746 604 -778 646 -962 791 -1224 965 -88 59 -158 109 -156 111 2 2 143
-1 313 -6 171 -6 364 -8 429 -5 66 2 508 16 984 29 476 14 892 26 925 28 33 1
61 -1 63 -5 2 -4 -128 -391 -288 -860z"/>
<path d="M11540 42277 c-1438 -577 -2617 -1052 -2619 -1054 -4 -2 125 -333
205 -529 l13 -31 653 262 c2873 1152 2908 1167 3537 1471 107 52 195 94 196
94 32 0 -147 -262 -1612 -2348 -894 -1274 -1626 -2324 -1625 -2332 2 -28 271
-685 279 -683 4 1 1176 471 2603 1043 1427 573 2605 1046 2617 1051 21 8 19
14 -84 271 -58 145 -109 273 -113 284 -8 21 -18 18 -267 -83 -142 -57 -879
-353 -1638 -658 -759 -304 -1436 -578 -1505 -608 -125 -55 -768 -348 -890
-406 -73 -35 -90 -38 -90 -16 0 8 728 1053 1617 2322 889 1270 1616 2313 1616
2319 0 16 -267 684 -273 683 -3 -1 -1182 -474 -2620 -1052z"/>
<path d="M103452 41968 c-11 -24 -405 -888 -876 -1922 -472 -1033 -854 -1882
-849 -1886 9 -10 516 -241 518 -237 1 1 167 364 369 807 202 443 370 808 374
811 4 4 108 -39 232 -96 124 -56 1154 -527 2290 -1045 1136 -519 2073 -943
2083 -944 13 -1 48 65 151 290 l133 292 -1316 600 c-724 331 -1761 804 -2306
1052 -544 249 -991 453 -993 454 -1 2 165 368 369 815 203 447 369 814 367
816 -7 6 -512 235 -519 235 -5 0 -17 -19 -27 -42z"/>
<path d="M13771 37041 c-1371 -719 -2494 -1309 -2495 -1312 0 -3 66 -134 148
-291 l150 -286 146 77 c3149 1647 4860 2548 4858 2557 -8 31 -294 564 -303
563 -5 0 -1132 -589 -2504 -1308z"/>
<path d="M16818 37231 c-1 -4 -880 -1029 -1953 -2276 -1072 -1247 -1949 -2270
-1948 -2274 1 -3 73 -131 159 -284 118 -207 162 -276 173 -272 9 2 761 133
1671 290 910 156 2234 385 2943 507 708 122 1287 225 1287 229 0 21 -341 604
-352 602 -238 -40 -3918 -694 -4043 -719 -260 -51 -570 -126 -805 -193 -113
-32 -206 -58 -207 -57 -1 1 74 74 168 161 163 154 460 462 626 650 44 50 630
727 1303 1505 673 778 1248 1443 1278 1477 l54 63 -168 299 c-93 165 -172 300
-176 301 -3 0 -8 -4 -10 -9z"/>
<path d="M100876 36638 c-105 -206 -123 -245 -112 -258 542 -621 2276 -2611
3005 -3447 542 -622 989 -1132 992 -1132 3 -1 74 130 156 289 l151 291 -639
724 -638 723 520 1004 c286 551 523 1006 527 1009 4 4 421 -38 927 -92 506
-53 937 -99 958 -100 l38 -3 151 289 c83 160 152 295 154 300 3 6 -12 12 -33
13 -21 2 -738 77 -1593 167 -3599 380 -4406 465 -4422 465 -12 0 -54 -72 -142
-242z m750 -358 c297 -61 495 -91 1069 -159 1322 -158 1519 -182 1522 -184 1
-2 -30 -66 -70 -143 -40 -76 -230 -442 -422 -812 -192 -370 -352 -671 -355
-670 -4 2 -292 323 -641 713 -740 829 -891 988 -1173 1233 -27 23 -44 42 -39
42 6 0 55 -9 109 -20z"/>
<path d="M19314 32962 c-11 -9 -1049 -741 -2307 -1627 -1333 -938 -2285 -1615
-2282 -1622 2 -7 408 -586 902 -1288 541 -768 903 -1273 910 -1270 7 2 114 75
238 162 146 103 223 163 220 171 -3 8 -323 466 -713 1018 -389 552 -708 1008
-709 1012 -1 4 381 276 848 606 711 500 853 596 864 585 7 -8 311 -437 675
-954 364 -517 663 -942 665 -944 2 -1 108 70 235 160 161 114 229 167 225 177
-3 8 -305 440 -671 959 -549 779 -664 948 -652 958 7 7 343 245 745 528 l733
515 58 -81 c33 -45 355 -503 717 -1017 362 -514 659 -937 661 -939 3 -3 405
278 454 317 l22 18 -897 1275 c-493 701 -902 1279 -909 1286 -8 9 -16 8 -32
-5z"/>
<path d="M98311 32320 c-94 -148 -171 -273 -170 -277 0 -4 435 -284 967 -621
532 -337 1604 -1017 2382 -1511 1060 -673 1418 -896 1426 -887 7 6 384 598
839 1316 455 718 832 1310 837 1316 6 8 -69 61 -237 168 -135 86 -249 156
-253 156 -5 -1 -536 -834 -1333 -2092 -4 -6 -945 585 -2143 1346 -1176 746
-2139 1356 -2141 1356 -2 0 -80 -121 -174 -270z"/>
<path d="M97955 30874 c-396 -60 -742 -253 -1109 -618 -174 -174 -239 -251
-779 -941 -379 -482 -484 -622 -474 -631 6 -7 1006 -791 2221 -1744 1537
-1205 2214 -1730 2223 -1724 6 5 98 119 204 253 l192 245 -24 20 c-14 12 -408
322 -877 690 -764 599 -851 670 -839 685 26 29 381 483 459 587 302 399 494
789 575 1173 25 114 27 146 28 341 0 239 -9 304 -70 487 -79 235 -218 447
-426 648 -269 259 -576 436 -879 506 -83 20 -352 34 -425 23z m253 -689 c204
-43 414 -163 608 -348 57 -54 127 -129 154 -166 64 -83 153 -265 175 -354 81
-335 -51 -738 -399 -1227 -111 -156 -496 -645 -507 -645 -5 0 -75 52 -157 116
-81 64 -484 380 -897 704 -412 323 -750 591 -750 595 0 15 526 678 624 786
251 280 520 467 761 529 113 29 279 33 388 10z"/>
<path d="M20354 28819 c-643 -563 -1599 -1398 -2124 -1858 -525 -459 -954
-840 -954 -847 1 -11 411 -484 420 -484 2 0 398 345 881 766 482 422 882 767
889 768 6 0 185 -197 397 -440 l385 -440 -342 -1015 c-188 -558 -384 -1139
-435 -1291 l-93 -276 253 -292 254 -291 11 38 c27 88 887 2779 891 2785 2 5
37 -10 76 -32 99 -54 272 -125 387 -159 146 -44 278 -63 430 -64 319 0 595 97
883 310 126 94 330 297 420 418 275 372 341 791 195 1235 -86 262 -254 556
-482 842 -66 83 -1078 1249 -1155 1331 -16 17 -76 -33 -1187 -1004z m1502
-229 c343 -394 426 -498 526 -656 223 -356 273 -652 157 -928 -47 -110 -134
-232 -249 -346 -202 -204 -410 -328 -624 -375 -105 -23 -309 -16 -411 14 -143
43 -324 145 -464 261 -130 108 -205 188 -549 579 l-355 405 39 33 c21 17 388
338 814 712 426 373 778 679 782 678 4 -1 154 -171 334 -377z"/>
<path d="M23985 26150 c-285 -45 -518 -171 -742 -401 -237 -244 -378 -496
-440 -789 -24 -115 -24 -366 1 -505 56 -311 135 -528 371 -1015 300 -618 387
-872 387 -1140 1 -173 -38 -293 -141 -442 -137 -199 -327 -343 -528 -400 -115
-33 -301 -31 -437 5 -187 50 -397 167 -604 337 -117 95 -352 329 -457 454
-215 255 -413 558 -560 856 -35 72 -68 129 -72 128 -4 -1 -102 -101 -216 -221
-189 -198 -208 -222 -202 -246 11 -44 119 -252 185 -357 126 -201 310 -428
541 -668 559 -582 1058 -869 1596 -916 324 -29 639 60 916 257 105 75 295 264
380 378 82 109 188 318 221 436 67 234 61 468 -19 775 -66 253 -150 461 -360
894 -201 414 -281 606 -329 793 -86 329 -47 568 129 797 176 228 351 341 571
369 385 48 818 -214 1240 -749 78 -99 212 -300 278 -418 45 -79 178 -344 188
-372 3 -9 89 31 271 124 147 76 267 141 267 146 0 4 -43 93 -95 196 -138 276
-288 503 -494 749 -103 123 -387 406 -491 489 -284 226 -582 376 -872 437
-108 23 -388 33 -483 19z"/>
<path d="M92476 25366 l-197 -191 76 -185 c73 -175 363 -880 1642 -3990 300
-729 558 -1358 575 -1398 l30 -72 239 231 c197 191 237 234 229 248 -5 10
-172 406 -370 882 -199 475 -363 866 -365 870 -4 6 1619 1571 1636 1577 5 2
400 -177 877 -397 478 -221 873 -401 878 -401 9 1 477 446 482 459 1 4 -59 36
-135 71 -76 34 -1011 465 -2078 957 -1067 493 -2228 1028 -2580 1191 -352 162
-663 305 -690 317 l-51 23 -198 -192z m684 -632 c225 -128 622 -324 1547 -765
386 -184 702 -337 703 -341 0 -9 -1312 -1268 -1322 -1268 -4 0 -8 4 -8 9 0 5
-169 407 -376 893 -363 855 -529 1217 -668 1457 -64 111 -69 121 -63 121 1 0
86 -48 187 -106z"/>
<path d="M26985 23292 c-198 -229 -1029 -1190 -1845 -2136 -817 -945 -1486
-1721 -1487 -1725 -1 -3 109 -101 244 -217 l246 -211 1843 2133 c1013 1173
1845 2137 1848 2142 4 7 -408 373 -472 419 -15 11 -62 -40 -377 -405z"/>
<path d="M27090 20205 c-965 -1212 -1756 -2209 -1758 -2213 -3 -10 1231 -994
1410 -1125 750 -546 1516 -751 2235 -596 493 106 1012 423 1428 875 559 607
867 1198 946 1819 6 50 11 171 11 270 0 582 -207 1103 -633 1601 -161 187
-362 368 -789 708 -818 652 -1081 861 -1088 864 -4 1 -797 -990 -1762 -2203z
m2362 1005 c367 -291 460 -371 609 -520 250 -250 403 -464 511 -715 98 -229
132 -395 133 -650 0 -192 -8 -258 -55 -441 -112 -438 -417 -931 -835 -1350
-413 -415 -826 -626 -1298 -664 -487 -40 -1045 159 -1582 564 -182 137 -744
589 -741 595 3 4 202 255 443 558 1990 2502 2367 2973 2374 2971 4 -2 203
-158 441 -348z"/>
<path d="M88617 21858 c-242 -208 -246 -212 -229 -233 9 -12 840 -976 1846
-2143 1817 -2106 1830 -2122 1850 -2103 12 10 545 469 1186 1021 641 551 1168
1006 1173 1010 6 5 -278 346 -358 429 l-23 23 -940 -811 c-518 -446 -945 -811
-949 -810 -4 0 -750 862 -1658 1915 -907 1052 -1650 1914 -1650 1914 -1 0
-113 -95 -248 -212z"/>
<path d="M85954 19922 c-192 -125 -785 -508 -1317 -851 -532 -344 -966 -629
-964 -635 12 -31 3060 -4741 3066 -4739 13 3 2615 1683 2627 1696 9 9 -12 48
-83 157 -52 80 -122 188 -156 242 l-62 96 -1044 -674 c-575 -371 -1048 -674
-1052 -674 -7 0 -1129 1735 -1129 1747 0 4 439 291 976 637 536 347 977 633
980 637 7 12 -295 474 -309 473 -7 -1 -452 -285 -989 -631 l-976 -630 -424
655 c-232 361 -455 706 -495 767 -54 83 -69 113 -60 121 7 6 478 312 1048 679
l1037 668 -76 116 c-41 64 -111 173 -156 243 -44 70 -83 128 -86 127 -3 0
-163 -102 -356 -227z"/>
<path d="M31665 16874 c-1353 -987 -2460 -1799 -2460 -1804 0 -14 536 -352
550 -346 6 2 357 259 779 571 l767 566 32 -19 c44 -26 1881 -1193 1886 -1198
2 -2 -79 -425 -179 -941 -100 -516 -183 -942 -184 -947 -1 -10 541 -364 559
-365 6 -1 271 1339 589 2977 319 1637 581 2984 583 2992 2 10 -54 50 -169 123
-95 59 -200 125 -233 146 l-60 38 -2460 -1793z m2254 879 c-88 -302 -136 -516
-344 -1513 -113 -541 -207 -985 -208 -986 -4 -4 -1542 975 -1544 983 -2 5 6
14 17 21 11 6 368 273 793 591 773 580 972 737 1207 955 69 63 125 116 126
116 1 0 -21 -75 -47 -167z"/>
<path d="M35295 14582 c-643 -1412 -1169 -2569 -1168 -2571 2 -6 1371 -631
1543 -705 1231 -529 2303 -385 3070 410 242 251 438 538 620 909 279 568 403
1068 387 1560 -12 356 -82 641 -233 945 -257 516 -685 918 -1314 1231 -172 86
-1712 789 -1726 789 -5 -1 -535 -1156 -1179 -2568z m2050 1553 c595 -271 740
-349 980 -529 385 -289 623 -646 717 -1076 20 -94 23 -131 22 -355 0 -229 -2
-261 -27 -385 -92 -467 -325 -993 -617 -1392 -98 -135 -338 -374 -460 -460
-250 -177 -500 -275 -794 -314 -144 -19 -424 -14 -581 10 -221 35 -523 124
-765 226 -112 47 -860 387 -867 393 -1 2 8 26 21 53 13 27 432 945 931 2039
499 1095 911 1998 916 2007 11 20 -51 45 524 -217z"/>
<path d="M81870 17134 c-19 -2 -78 -9 -130 -15 -282 -32 -623 -131 -934 -271
-105 -48 -1715 -885 -1750 -911 -15 -11 124 -281 1290 -2507 719 -1372 1309
-2498 1313 -2502 7 -8 1433 735 1606 836 146 86 374 242 500 342 156 124 403
375 511 519 237 316 380 641 445 1010 27 155 37 463 19 631 -40 398 -161 788
-381 1226 -476 951 -1137 1492 -1979 1623 -99 15 -435 28 -510 19z m412 -643
c573 -123 1034 -523 1416 -1226 196 -361 318 -718 363 -1060 18 -136 6 -465
-20 -585 -123 -557 -486 -1009 -1113 -1389 -119 -72 -928 -501 -945 -501 -9 0
-2108 3999 -2102 4004 32 23 1001 520 1094 561 241 105 484 177 715 210 141
21 465 13 592 -14z"/>
<path d="M42885 14288 c-2 -7 -355 -1223 -785 -2703 -429 -1479 -782 -2697
-785 -2706 -4 -12 48 -31 281 -98 157 -45 288 -80 291 -77 9 8 928 3179 998
3441 84 315 265 1079 265 1119 0 3 9 6 19 6 16 0 25 -16 45 -82 13 -46 328
-1084 700 -2308 371 -1224 730 -2407 797 -2630 68 -223 128 -407 133 -410 39
-17 702 -206 707 -201 3 3 358 1221 789 2706 431 1485 785 2705 787 2710 3 10
-573 182 -582 173 -2 -2 -198 -672 -435 -1489 -237 -816 -458 -1574 -490
-1684 -70 -237 -276 -1065 -335 -1342 -4 -22 -12 -33 -24 -33 -15 0 -153 443
-840 2703 -453 1486 -824 2704 -826 2705 -2 2 -157 48 -345 103 -188 55 -346
102 -351 105 -5 3 -11 -1 -14 -8z"/>
<path d="M74465 14130 c-206 -68 -299 -103 -296 -112 2 -11 1160 -3557 1622
-4971 72 -218 134 -395 139 -392 5 3 676 223 1490 489 815 266 1483 486 1486
489 5 5 -164 535 -175 549 -4 4 -434 -132 -956 -303 -523 -170 -1055 -344
-1183 -386 -128 -41 -234 -74 -236 -72 -2 2 -356 1085 -787 2407 -431 1321
-788 2402 -794 2402 -5 -1 -145 -46 -310 -100z"/>
<path d="M71197 13165 c-136 -40 -250 -75 -253 -77 -2 -3 -132 -1352 -289
-2999 -156 -1647 -287 -3013 -290 -3035 l-6 -42 318 92 318 92 85 957 c47 526
89 959 92 963 6 5 2129 619 2167 626 9 2 232 -281 558 -707 299 -390 564 -735
588 -767 l44 -56 313 90 c172 50 317 94 321 98 5 4 -808 1073 -1805 2376 -998
1303 -1829 2390 -1848 2416 -19 26 -42 47 -50 47 -8 -1 -127 -34 -263 -74z
m269 -802 c172 -272 347 -518 914 -1280 335 -450 610 -820 610 -823 0 -7
-1753 -510 -1759 -504 -3 2 30 424 73 937 89 1069 100 1259 93 1560 -3 119 -4
217 -2 217 1 0 33 -48 71 -107z"/>
<path d="M49437 12513 c-13 -21 -712 -1170 -1552 -2553 -840 -1383 -1543
-2539 -1561 -2568 -23 -36 -30 -54 -22 -57 7 -2 150 -27 318 -55 168 -29 308
-54 312 -56 4 -3 230 368 503 823 273 456 498 829 499 830 4 4 2234 -382 2239
-387 3 -3 91 -428 197 -945 106 -517 194 -941 195 -943 1 -1 152 -29 334 -60
320 -56 332 -57 327 -38 -5 21 -287 1393 -887 4321 -182 891 -335 1624 -340
1629 -6 7 -491 96 -526 96 -7 0 -23 -17 -36 -37z m186 -879 c38 -351 42 -369
390 -2191 35 -183 60 -333 57 -333 -9 0 -1737 298 -1773 306 -20 4 -27 10 -23
20 3 8 227 389 498 847 477 808 678 1172 784 1424 22 51 41 93 44 93 3 0 13
-75 23 -166z"/>
<path d="M68300 12474 c-162 -29 -296 -53 -297 -53 -1 -1 0 -7 2 -13 5 -12
471 -2706 550 -3178 46 -274 95 -511 209 -1024 53 -235 93 -432 90 -437 -3 -5
-9 -9 -14 -9 -7 0 -3749 4019 -3833 4116 l-22 26 -365 -64 c-201 -35 -364 -68
-364 -73 22 -145 959 -5552 963 -5556 3 -4 138 16 299 44 278 49 293 52 288
72 -3 11 -131 752 -285 1646 -155 895 -297 1709 -316 1810 -57 302 -165 790
-236 1071 -16 64 -29 119 -29 122 0 3 8 6 18 6 10 0 63 -48 118 -107 55 -60
918 -990 1918 -2068 1000 -1078 1824 -1964 1831 -1969 8 -6 144 13 376 53 200
35 365 64 365 65 1 0 -90 530 -202 1176 -111 646 -327 1897 -479 2780 -152
883 -280 1608 -283 1611 -4 3 -140 -18 -302 -47z"/>
<path d="M54275 11799 c-616 -63 -1139 -306 -1530 -710 -127 -131 -193 -213
-297 -370 -344 -515 -535 -1198 -555 -1985 -14 -563 70 -1006 271 -1419 300
-617 819 -1019 1558 -1205 400 -102 982 -151 1403 -119 187 14 454 54 471 72
4 4 29 180 76 542 2 11 -2 19 -8 18 -7 -1 -92 -11 -190 -22 -1405 -158 -2265
162 -2669 994 -157 323 -222 668 -212 1120 17 715 198 1334 516 1763 379 511
949 780 1586 748 468 -23 944 -172 1364 -425 57 -35 107 -59 111 -54 8 9 333
494 338 505 6 12 -160 108 -323 188 -346 169 -732 281 -1180 341 -173 23 -584
33 -730 18z"/>
<path d="M61045 11704 c-387 -40 -630 -94 -890 -200 -709 -290 -1189 -899
-1374 -1744 -64 -292 -85 -515 -85 -895 0 -337 15 -543 59 -803 167 -987 666
-1670 1451 -1987 182 -74 443 -137 689 -167 144 -17 624 -17 765 0 549 67 971
236 1315 524 699 585 1011 1553 899 2788 -40 443 -140 821 -309 1165 -362 742
-975 1184 -1805 1300 -110 16 -616 29 -715 19z m526 -584 c475 -48 851 -236
1124 -560 310 -370 475 -895 504 -1608 52 -1243 -316 -2037 -1087 -2348 -387
-156 -952 -186 -1387 -74 -579 149 -987 561 -1189 1199 -64 204 -110 446 -137
726 -19 192 -16 656 5 845 59 547 219 959 493 1273 266 304 670 498 1138 545
128 13 415 14 536 2z"/>
<path d="M56940 11508 c0 -62 -25 -1332 -54 -2823 -30 -1490 -52 -2712 -50
-2714 4 -5 636 -18 643 -13 3 1 28 1207 57 2680 29 1472 54 2743 56 2823 l3
146 -230 6 c-126 4 -274 7 -327 7 l-98 0 0 -112z"/>
</g>
</svg>
